<svg xmlns="http://www.w3.org/2000/svg" xmlns:xlink="http://www.w3.org/1999/xlink" width="100" height="100" viewBox="0 0 100 100"><g transform="translate(50 50) scale(0.69 0.69) rotate(90) translate(-50 -50)" style="fill:#0059b3"><svg fill="#0059b3" xmlns="http://www.w3.org/2000/svg" xmlns:xlink="http://www.w3.org/1999/xlink" version="1.1" x="0px" y="0px" viewBox="0 0 100 100" style="enable-background:new 0 0 100 100;" xml:space="preserve"><path d="M92.5,50L92.5,50c1.9-2.5,2.8-5.7,2.3-8.9l-0.2-1.2l-1.2-0.2c-3.2-0.5-6.4,0.4-8.9,2.3c0,0,0,0,0,0c-3.4-2.5-8-2.5-11.5,0  l0,0c-2.1-1.6-4.6-2.5-7.2-2.5h-8.7c-2.6,0-5.2,0.9-7.2,2.5c0,0,0,0,0,0c0,0,0,0,0,0c-3.4-2.5-8-2.5-11.5,0l0,0c0,0,0,0,0,0  c-2.1-1.6-4.6-2.5-7.2-2.5h-8.7c-2.6,0-5.1,0.9-7.2,2.5l0,0c0,0,0,0,0,0c0,0,0,0,0,0c-2.5-1.9-5.7-2.8-8.9-2.3l-1.2,0.2l-0.2,1.2  c-0.4,3.2,0.4,6.4,2.3,8.9l0,0c0,0,0,0,0,0c0,0,0,0,0,0c-1.9,2.5-2.8,5.7-2.3,8.9l0.2,1.2l1.2,0.2c3.2,0.5,6.4-0.4,8.9-2.3  c0,0,0,0,0,0c3.4,2.5,8,2.5,11.5,0c2.1,1.6,4.6,2.5,7.2,2.5h8.7c2.6,0,5.2-0.9,7.2-2.5c3.4,2.5,8,2.5,11.5,0  c2.1,1.6,4.6,2.5,7.2,2.5h8.7c2.6,0,5.1-0.9,7.2-2.5l0,0c0,0,0,0,0,0c0,0,0,0,0,0c2.5,1.9,5.7,2.8,8.9,2.3l1.2-0.2l0.2-1.2  C95.3,55.7,94.5,52.5,92.5,50L92.5,50z M82.2,44.4C82.2,44.4,82.2,44.4,82.2,44.4l-3.3,3.3l0,0l0,0l-3.3-3.3h0  C77.6,43.2,80.2,43.2,82.2,44.4z M73.2,46.7l3.2,3.2c0,0,0,0,0,0c0,0,0,0,0,0c-1.4,0.9-3,1.5-4.7,1.5C71.7,49.7,72.2,48,73.2,46.7z   M47.5,44.4l-3.3,3.3l0,0l-3.3-3.3C43,43.2,45.5,43.2,47.5,44.4z M38.6,46.7l3.2,3.2c-1.4,0.9-3,1.5-4.7,1.5  C37.1,49.7,37.6,48,38.6,46.7z M13,44.3C13,44.3,13,44.3,13,44.3l-3.2,3.2h0c-0.9-1.4-1.5-3-1.5-4.7C10,42.9,11.6,43.4,13,44.3z   M13,55.7c-1.4,0.9-3,1.4-4.7,1.5c0-1.7,0.5-3.3,1.5-4.7c0,0,0,0,0,0c0,0,0,0,0,0L13,55.7L13,55.7z M15.4,53.5L11.9,50l0,0l0,0  l3.5-3.5l3.5,3.5l0,0L15.4,53.5z M17.8,55.6C17.8,55.6,17.8,55.6,17.8,55.6l3.3-3.3l3.3,3.3l0,0C22.4,56.8,19.8,56.8,17.8,55.6z   M26.8,53.3L26.8,53.3l-3.2-3.2c0,0,0,0,0,0c1.4-0.9,3-1.4,4.7-1.5C28.3,50.3,27.8,52,26.8,53.3z M47.6,55.7c-1.4,1-3.1,1.5-4.8,1.5  h-8.7c-1.8,0-3.5-0.5-4.9-1.5c0,0,0,0,0,0c0,0,0,0,0,0c1.8-2.5,2.6-5.6,2.2-8.7l-0.2-1.2L30,45.5c-3.1-0.5-6.3,0.4-8.8,2.3l0,0  l-3.4-3.4h0c1.4-1,3.1-1.5,4.8-1.5h8.7c1.8,0,3.5,0.5,4.9,1.5c0.4,0.3,0.4,0.3,0,0c-1.8,2.5-2.6,5.6-2.2,8.7l0.2,1.2l1.2,0.2  c3.1,0.5,6.3-0.4,8.8-2.3l0,0L47.6,55.7L47.6,55.7z M50,53.5L50,53.5L50,53.5L46.5,50l0,0l3.5-3.5l-0.1-0.1l0.1,0.1l3.5,3.5l0,0  L50,53.5z M59.1,55.6c-2.1,1.2-4.6,1.2-6.6,0c0,0,0,0,0,0c0,0,0,0,0,0l3.3-3.3L59.1,55.6L59.1,55.6L59.1,55.6z M61.4,53.3L61.4,53.3  L61.4,53.3l-3.2-3.2c0,0,0,0,0,0c1.4-0.9,3-1.4,4.7-1.5C62.9,50.3,62.4,52,61.4,53.3z M82.2,55.7c-1.4,1-3.1,1.5-4.8,1.5h-8.7  c-1.8,0-3.5-0.5-4.9-1.5c1.8-2.5,2.6-5.6,2.2-8.7l-0.2-1.2l-1.2-0.2c-3.1-0.5-6.3,0.4-8.8,2.3l0,0l-3.4-3.4l0,0  c1.4-1,3.1-1.5,4.8-1.5h8.7c1.8,0,3.5,0.5,4.9,1.5c0,0,0,0,0,0c-1.8,2.5-2.6,5.6-2.2,8.7l0.2,1.2l1.2,0.2c3.1,0.5,6.3-0.4,8.8-2.3  l0,0L82.2,55.7L82.2,55.7L82.2,55.7z M84.6,53.5L84.6,53.5L81.1,50l3.5-3.5l3.5,3.5l0,0L84.6,53.5z M87,55.7l3.2-3.2l0,0  c0.9,1.4,1.4,3,1.5,4.7C90,57.1,88.4,56.6,87,55.7z M90.3,47.6L87,44.3c1.4-0.9,3-1.4,4.7-1.5C91.7,44.6,91.2,46.2,90.3,47.6z"></path></svg></g></svg>